<svg width="30" height="28" fill="none" xmlns="http://www.w3.org/2000/svg"><path fill-rule="evenodd" clip-rule="evenodd" d="M14.73 14c-3.332 0-6.034-2.612-6.034-5.833 0-3.222 2.702-5.834 6.034-5.834s6.034 2.612 6.034 5.834c0 3.221-2.702 5.833-6.034 5.833zm10.86 10.5v-2.333c0-3.222-2.7-5.834-6.033-5.834H9.903c-3.332 0-6.034 2.612-6.034 5.834V24.5c0 .644.54 1.167 1.207 1.167.666 0 1.207-.523 1.207-1.167v-2.333c0-1.933 1.62-3.5 3.62-3.5h9.654c2 0 3.62 1.567 3.62 3.5V24.5c0 .644.54 1.167 1.207 1.167.666 0 1.207-.523 1.207-1.167zM18.35 8.167c0 1.933-1.62 3.5-3.62 3.5s-3.62-1.567-3.62-3.5 1.62-3.5 3.62-3.5 3.62 1.567 3.62 3.5z" fill="#4A4A4A"/><mask id="mask0" maskUnits="userSpaceOnUse" x="3" y="2" width="23" height="24"><path fill-rule="evenodd" clip-rule="evenodd" d="M14.73 14c-3.332 0-6.034-2.612-6.034-5.833 0-3.222 2.702-5.834 6.034-5.834s6.034 2.612 6.034 5.834c0 3.221-2.702 5.833-6.034 5.833zm10.86 10.5v-2.333c0-3.222-2.7-5.834-6.033-5.834H9.903c-3.332 0-6.034 2.612-6.034 5.834V24.5c0 .644.54 1.167 1.207 1.167.666 0 1.207-.523 1.207-1.167v-2.333c0-1.933 1.62-3.5 3.62-3.5h9.654c2 0 3.62 1.567 3.62 3.5V24.5c0 .644.54 1.167 1.207 1.167.666 0 1.207-.523 1.207-1.167zM18.35 8.167c0 1.933-1.62 3.5-3.62 3.5s-3.62-1.567-3.62-3.5 1.62-3.5 3.62-3.5 3.62 1.567 3.62 3.5z" fill="#fff"/></mask><g mask="url(#mask0)"><path fill="#00893D" d="M.249 0h28.962v28H.249z"/></g></svg>