<svg width="27" height="27" fill="none" xmlns="http://www.w3.org/2000/svg"><path d="M24.543 5.606a1.08 1.08 0 00-1.026-.746H21.06V1.08A1.08 1.08 0 0019.98 0H7.02a1.08 1.08 0 00-1.08 1.08v3.78H3.483a1.077 1.077 0 00-1.026.746L0 13.162V25.92C0 26.517.483 27 1.08 27h24.84A1.08 1.08 0 0027 25.92V13.162l-2.457-7.556zm-6.048 11.809a.27.27 0 01-.27.27H14.58v3.645a.27.27 0 01-.27.27h-1.62a.27.27 0 01-.27-.27v-3.645H8.775a.27.27 0 01-.27-.27v-1.62a.27.27 0 01.27-.27h3.645V11.88a.27.27 0 01.27-.27h1.62a.27.27 0 01.27.27v3.645h3.645a.27.27 0 01.27.27v1.62zM18.63 4.86H8.37V2.43h10.26v2.43z" fill="url(#paint0_linear)"/><defs><linearGradient id="paint0_linear" x1="0" y1="0" x2="0" y2="27" gradientUnits="userSpaceOnUse"><stop stop-color="#FBB03B"/><stop offset="1" stop-color="#D4145A"/></linearGradient></defs></svg>