<svg width="209" height="24" fill="none" xmlns="http://www.w3.org/2000/svg"><path fill-rule="evenodd" clip-rule="evenodd" d="M107.556 14.088c-.404 0-.785.181-1.041.492-.888 1.014-1.985 1.516-3.291 1.516-.823 0-1.557-.181-2.203-.54a3.87 3.87 0 01-1.51-1.51c-.363-.646-.54-1.38-.54-2.203s.181-1.557.54-2.204a3.87 3.87 0 011.51-1.51c.646-.363 1.38-.54 2.203-.54 1.065 0 1.994.335 2.784 1.005.317.274.544.432.991.432a1.357 1.357 0 00.915-2.352l-.004-.005-.019-.018a6.271 6.271 0 00-1.697-1.074c-.929-.404-1.97-.609-3.123-.609-1.367 0-2.599.293-3.69.883-1.093.59-1.958 1.404-2.58 2.45-.628 1.046-.94 2.226-.94 3.542 0 1.315.312 2.496.94 3.542a6.608 6.608 0 002.58 2.45c1.091.59 2.319.882 3.671.882 1.153 0 2.194-.204 3.133-.609a6.163 6.163 0 002.315-1.715 1.35 1.35 0 00.404-.957c0-.744-.604-1.348-1.348-1.348zm-15.822-9.11c.734 0 1.33.599 1.33 1.329v11.081c0 .73-.6 1.33-1.33 1.33-.73 0-1.33-.6-1.33-1.33v-.112a6.872 6.872 0 01-11.081-5.43A6.872 6.872 0 0190.404 6.42v-.111c0-.73.6-1.33 1.33-1.33zm-1.33 7.125v-.507a4.217 4.217 0 00-8.427.251 4.215 4.215 0 004.216 4.216 4.21 4.21 0 004.212-3.96zm53.557-6.898c.697 0 1.269.544 1.32 1.227a6.872 6.872 0 0111.091 5.42 6.872 6.872 0 01-11.086 5.424v4.221c0 .73-.595 1.325-1.325 1.325s-1.325-.595-1.325-1.325v-9.385c-.004-.083-.004-.172-.004-.26 0-.088 0-.172.004-.26V6.525c0-.725.595-1.32 1.325-1.32zm5.541 2.426a4.215 4.215 0 100 8.432 4.216 4.216 0 100-8.432zm39.751 2.682a1.255 1.255 0 110 2.511 1.255 1.255 0 010-2.51zm15.906 3.208v.799l-.005.047-.004.023-.005.023-.009.047-.009.041-.005.024-.014.041-.009.02-.01.022-.014.037-.009.024-.018.037-.01.019-.023.037-.023.032-.014.019-.028.032-.028.033-.028.033-.032.027-.033.028-.032.028-.038.023-.037.024-.018.009-.038.018-.023.01-.037.018-.037.014-.023.01-.042.014-.024.004-.041.01-.024.004-.041.005-.024.005-.041.004h-.093l-.047-.005-.023-.004-.042-.005-.023-.004-.042-.01-.042-.014-.023-.009-.037-.014-.024-.01-.041-.018-.038-.018-.018-.01-.033-.023-.018-.014-.019-.014-.019-.014-.032-.023-.033-.028-.032-.028-.028-.028-.028-.032-.028-.033-.023-.032-.014-.024-.023-.037-.01-.018-.018-.037-.019-.038-.014-.037-.009-.023-.014-.042-.005-.023-.009-.042-.004-.023-.005-.024-.005-.023-.004-.023-.005-.042v-.795h-.999c-.498 0-1-.074-1.455-.279a2.24 2.24 0 01-.986-.822 2.285 2.285 0 01-.348-1.25c0-.447.102-.88.348-1.256.242-.372.581-.636.981-.822.456-.205.958-.284 1.455-.284h3.774c.498 0 1 .074 1.455.284.405.18.739.45.981.822.246.377.349.81.349 1.255 0 .447-.103.874-.349 1.25a2.212 2.212 0 01-.986.823c-.455.205-.957.28-1.454.28h-.972v-.005zm-10.319 0v.753c0 .488-.4.888-.888.888a.89.89 0 01-.887-.888V9.7a.89.89 0 01.887-.888h1.887c.498 0 1 .074 1.455.284.405.18.739.45.981.822.246.377.349.81.349 1.255 0 .447-.103.874-.349 1.25a2.215 2.215 0 01-.985.823c-.456.205-.958.28-1.455.28h-.995v-.005zm10.319-3.184V12h.92c.275 0 .6-.042.814-.223.186-.154.251-.368.251-.605 0-.241-.061-.46-.251-.613-.219-.181-.544-.223-.814-.223h-.92zM203.379 12v-1.664h-.92c-.275 0-.6.042-.814.223-.19.158-.251.376-.251.613s.065.451.251.605c.219.18.544.223.814.223h.92zm-8.539-1.664V12h.92c.275 0 .6-.042.814-.223.186-.154.251-.368.251-.605 0-.241-.061-.46-.251-.613-.219-.181-.544-.223-.814-.223h-.92zm-10.57.962a3.71 3.71 0 00.851-2.366 3.728 3.728 0 00-3.728-3.728h-5.722c-.786 0-1.422.628-1.436 1.413v10.697c0 .65.53 1.18 1.18 1.18h6.308a4.048 4.048 0 002.547-7.195zm-6.958 4.913v-3.389h3.946a1.698 1.698 0 010 3.394h-3.946v-.005zm.562-8.502h3.128a1.303 1.303 0 010 2.608h-3.695V7.71h.567zm-7.604 5.113h-8.813a3.893 3.893 0 003.737 2.836c1.292 0 2.51-.437 3.337-1.2a1.419 1.419 0 011.915 2.092c-1.348 1.237-3.263 1.943-5.257 1.943a6.723 6.723 0 01-6.716-6.716 6.723 6.723 0 016.716-6.717c3.38 0 6.22 2.663 6.582 6.015a1.527 1.527 0 01-1.501 1.748zm-1.316-2.51a4.012 4.012 0 00-3.704-2.468 4.012 4.012 0 00-3.705 2.468h7.409zm-1.585-6.047a1.548 1.548 0 110-3.095 1.548 1.548 0 010 3.095zm-4.783 0a1.548 1.548 0 110-3.095 1.548 1.548 0 010 3.095zm-106.862.711a6.872 6.872 0 016.87 6.87 6.872 6.872 0 01-6.87 6.87 6.872 6.872 0 01-6.87-6.87 6.866 6.866 0 016.87-6.87zm0 2.654a4.215 4.215 0 100 8.431 4.215 4.215 0 000-8.43zM35.058 5.65c.019.019.033.037.051.051l4.305 4.495 4.378-4.55a1.54 1.54 0 012.627 1.097v10.198c0 .846-.693 1.543-1.544 1.543-.85 0-1.543-.693-1.543-1.543v-6.8l-2.914 3.03-.033.033-.01.009a1.39 1.39 0 01-.868.386h-.196a1.355 1.355 0 01-.869-.386l-.009-.01-.033-.032-2.89-3.003v6.773c0 .846-.693 1.543-1.544 1.543a1.548 1.548 0 01-1.543-1.543V6.744a1.545 1.545 0 012.635-1.093zm89.692-.446c.841 0 1.529.688 1.529 1.53V9.57h3.379c1.618 0 2.864.362 3.733 1.083.865.72 1.301 1.79 1.301 3.207 0 1.506-.478 2.654-1.431 3.444-.958.79-2.301 1.186-4.035 1.186h-4.471c-.842 0-1.53-.688-1.53-1.53V6.73a1.523 1.523 0 011.525-1.525zm1.525 6.642v4.365h2.77c.795 0 1.422-.195 1.868-.59.451-.39.674-.963.674-1.706 0-1.38-.845-2.069-2.542-2.069h-2.77zm12.034-6.642c.841 0 1.529.688 1.529 1.53v10.23c0 .841-.688 1.53-1.529 1.53a1.533 1.533 0 01-1.529-1.53V6.735a1.536 1.536 0 011.529-1.53zm-22.762 0h4.518c.688 0 1.255.562 1.255 1.255 0 .688-.563 1.25-1.255 1.25h-2.999v9.264c0 .837-.683 1.52-1.519 1.52-.837 0-1.52-.683-1.52-1.52V7.71h-2.98c-.688 0-1.25-.562-1.25-1.25s.562-1.255 1.25-1.255h4.5zm-48.97 0c.847 0 1.54.693 1.54 1.539v3.7h6.037v-3.7c0-.846.693-1.539 1.539-1.539s1.538.693 1.538 1.539v10.212c0 .846-.692 1.538-1.538 1.538a1.543 1.543 0 01-1.539-1.538v-3.91h-6.038v3.91c0 .846-.692 1.538-1.538 1.538a1.543 1.543 0 01-1.539-1.538V6.744a1.54 1.54 0 011.539-1.539z" fill="#00893D"/><path fill-rule="evenodd" clip-rule="evenodd" d="M14.84 23.51a11.822 11.822 0 01-9.835-2.715 18.633 18.633 0 009.236.813l.25-.042a9.873 9.873 0 008.106-10.593 18.62 18.62 0 01-1.221 9.018 11.814 11.814 0 01-6.536 3.518z" fill="url(#paint0_linear)"/><path fill-rule="evenodd" clip-rule="evenodd" d="M14.733 15.073c-.05-.084-.107-.163-.158-.247.005 0 .005-.004.01-.004.07.116.12.204.148.25z" fill="#FFF8B4"/><path fill-rule="evenodd" clip-rule="evenodd" d="M12.501 5.632a27.656 27.656 0 006.647 11.235H16.49a29.645 29.645 0 01-6.033-11.235h2.045z" fill="#FFD800"/><path fill-rule="evenodd" clip-rule="evenodd" d="M15.082 5.632a29.643 29.643 0 01-6.015 11.235H6.413a27.681 27.681 0 006.62-11.235h2.049z" fill="#E5310E"/><path fill-rule="evenodd" clip-rule="evenodd" d="M19.372 14.4a14.094 14.094 0 01-6.605 1.635c-2.384 0-4.634-.59-6.605-1.636V12.14a12.345 12.345 0 006.605 1.901c2.427 0 4.69-.697 6.605-1.9v2.258z" fill="#5CB136"/><path fill-rule="evenodd" clip-rule="evenodd" d="M4.275 3.587c.032-.032.065-.07.097-.102a2.07 2.07 0 01-.097.102zm.73 17.208a11.786 11.786 0 01-3.9-6.875A11.82 11.82 0 014.168 3.703l-.01.01a18.595 18.595 0 00-1.222 9.012c.028.284.06.568.112.851.938 5.285 5.917 8.832 11.192 8.032l.251-.042c-3.197.688-6.358.368-9.487-.771z" fill="url(#paint1_linear)"/><path fill-rule="evenodd" clip-rule="evenodd" d="M10.699.185a11.819 11.819 0 019.835 2.714 18.634 18.634 0 00-9.236-.813l-.25.042C5.966 3.029 2.484 7.673 2.94 12.72a18.595 18.595 0 011.222-9.013A11.761 11.761 0 0110.7.185z" fill="url(#paint2_linear)"/><path fill-rule="evenodd" clip-rule="evenodd" d="M21.259 20.107c-.033.032-.065.07-.098.102.033-.037.065-.07.098-.102zm-.73-17.208a11.785 11.785 0 013.9 6.875 11.82 11.82 0 01-3.063 10.217l.009-.01a18.595 18.595 0 001.222-9.013 8.873 8.873 0 00-.111-.85 9.868 9.868 0 00-11.193-8.032l-.251.042c3.203-.693 6.363-.368 9.487.771z" fill="url(#paint3_linear)"/><defs><linearGradient id="paint0_linear" x1="23.513" y1="16.439" x2="4.8" y2="19.567" gradientUnits="userSpaceOnUse"><stop stop-color="#FFE500"/><stop offset="1" stop-color="#F18500"/></linearGradient><linearGradient id="paint1_linear" x1="1.256" y1="5.026" x2="10.417" y2="23.577" gradientUnits="userSpaceOnUse"><stop stop-color="#FDC300"/><stop offset="1" stop-color="#D7030D"/></linearGradient><linearGradient id="paint2_linear" x1="1.977" y1="7.312" x2="20.722" y2="3.983" gradientUnits="userSpaceOnUse"><stop stop-color="#FFED00"/><stop offset="1" stop-color="#9FC515"/></linearGradient><linearGradient id="paint3_linear" x1="16.88" y1="1.088" x2="20.274" y2="20.362" gradientUnits="userSpaceOnUse"><stop stop-color="#32A934"/><stop offset="1" stop-color="#C7D300"/></linearGradient></defs></svg>