<svg width="22" height="32" fill="none" xmlns="http://www.w3.org/2000/svg"><path d="M11 .32c3.048 0 5.643 1.103 7.786 3.309C20.929 5.835 22 8.492 22 11.602c0 2.51-.739 4.78-2.217 6.81l-6.927 12.286a3.343 3.343 0 01-.258.457l-.068.123h-.035c-.4.481-.9.722-1.495.722-.676 0-1.209-.288-1.598-.862l-.018.017v-.035l-7.2-12.76C.726 16.365 0 14.113 0 11.602c0-3.11 1.071-5.768 3.214-7.973C5.357 1.423 7.952.32 11 .32z" fill="url(#paint0_linear)"/><path fill="#D8D8D8" fill-opacity=".01" d="M2.64 2.96h16.72v16.72H2.64z"/><path fill-rule="evenodd" clip-rule="evenodd" d="M12.389 19.37a8.229 8.229 0 01-6.862-1.891c2.004.71 4.212.93 6.452.568.063-.016.11-.016.173-.032.126-.016.268-.047.395-.079a6.898 6.898 0 005.268-7.299 12.962 12.962 0 01-.852 6.29c-1.199 1.23-2.76 2.128-4.574 2.444z" fill="#fff"/><path fill-rule="evenodd" clip-rule="evenodd" d="M5.528 17.479a8.21 8.21 0 01-2.73-4.793 8.215 8.215 0 012.146-7.125 12.961 12.961 0 00-.852 6.29c.016.205.048.394.08.599.662 3.689 4.132 6.164 7.807 5.596.063-.015.11-.015.174-.031-2.24.488-4.449.252-6.625-.536zm-.52-11.997c.015-.032.047-.047.063-.063a289.5 289.5 0 00-.063.063z" fill="#fff"/><path fill-rule="evenodd" clip-rule="evenodd" d="M9.486 3.102a8.229 8.229 0 016.861 1.892 13.043 13.043 0 00-6.45-.568c-.064.016-.111.016-.174.032A6.89 6.89 0 004.06 11.85a12.961 12.961 0 01.852-6.29A8.402 8.402 0 019.486 3.1z" fill="#fff"/><path fill-rule="evenodd" clip-rule="evenodd" d="M16.348 4.994a8.21 8.21 0 012.728 4.792 8.215 8.215 0 01-2.145 7.126 12.962 12.962 0 00.852-6.29c-.016-.206-.047-.395-.079-.6-.662-3.688-4.133-6.164-7.808-5.596-.063.016-.11.016-.173.032 2.24-.473 4.448-.253 6.625.536zm.52 12.012c-.016.031-.048.047-.064.063.016-.016.032-.047.063-.063zM10.748 6.9a19.443 19.443 0 004.637 7.836h-1.861A20.733 20.733 0 019.313 6.9h1.435z" fill="#fff"/><path fill-rule="evenodd" clip-rule="evenodd" d="M12.545 6.9a20.484 20.484 0 01-4.196 7.836H6.504A19.234 19.234 0 0011.126 6.9h1.42z" fill="#fff"/><path fill-rule="evenodd" clip-rule="evenodd" d="M15.543 13.017a9.859 9.859 0 01-4.606 1.135 9.811 9.811 0 01-4.606-1.135v-1.576a8.684 8.684 0 004.606 1.324 8.65 8.65 0 004.606-1.324v1.576z" fill="#fff"/><defs><linearGradient id="paint0_linear" x1="8.311" y1="-4.828" x2="29.223" y2="25.561" gradientUnits="userSpaceOnUse"><stop stop-color="#00893D"/><stop offset="1" stop-color="#63B31F"/></linearGradient></defs></svg>