<svg width="177" height="22" fill="none" xmlns="http://www.w3.org/2000/svg"><path fill-rule="evenodd" clip-rule="evenodd" d="M75.556 13.088c-.404 0-.785.18-1.04.492-.889 1.014-1.986 1.516-3.292 1.516-.823 0-1.557-.182-2.203-.54a3.87 3.87 0 01-1.51-1.51c-.363-.646-.54-1.38-.54-2.204 0-.822.181-1.557.54-2.203a3.869 3.869 0 011.51-1.51c.646-.363 1.38-.54 2.203-.54 1.065 0 1.994.335 2.784 1.004.317.275.544.433.99.433a1.35 1.35 0 001.353-1.353 1.36 1.36 0 00-.437-1l-.004-.004-.019-.019a6.281 6.281 0 00-1.697-1.073c-.93-.405-1.97-.61-3.123-.61-1.367 0-2.599.294-3.69.884-1.093.59-1.958 1.404-2.58 2.45-.628 1.045-.94 2.226-.94 3.541 0 1.316.312 2.496.94 3.542a6.608 6.608 0 002.58 2.45c1.091.59 2.319.883 3.671.883 1.153 0 2.194-.204 3.133-.609a6.16 6.16 0 002.315-1.715 1.35 1.35 0 00.404-.958 1.35 1.35 0 00-1.348-1.348zm-15.822-9.11c.734 0 1.33.599 1.33 1.328v11.081c0 .73-.6 1.33-1.33 1.33-.73 0-1.33-.6-1.33-1.33v-.11a6.872 6.872 0 01-11.081-5.43 6.872 6.872 0 0111.081-5.429v-.112c0-.73.6-1.329 1.33-1.329zm-1.33 7.125v-.507a4.217 4.217 0 00-8.427.251 4.215 4.215 0 004.216 4.216 4.21 4.21 0 004.212-3.96zm53.557-6.898c.697 0 1.269.544 1.32 1.227a6.872 6.872 0 0111.091 5.42 6.872 6.872 0 01-11.086 5.424v4.22c0 .73-.595 1.326-1.325 1.326s-1.325-.595-1.325-1.325v-9.385c-.004-.084-.004-.172-.004-.26 0-.089 0-.172.004-.26V5.524c0-.725.595-1.32 1.325-1.32zm5.541 2.426a4.215 4.215 0 100 8.432 4.216 4.216 0 100-8.432zm39.751 2.682a1.255 1.255 0 110 2.511 1.255 1.255 0 010-2.51zm15.906 3.207v.8l-.005.046-.004.024-.005.023-.009.046-.009.042-.005.024-.014.041-.009.019-.01.023-.014.037-.009.024-.018.037-.01.018-.023.037-.023.033-.014.019-.028.032-.028.033-.028.032-.032.028-.033.028-.032.028-.038.023-.037.023-.018.01-.038.018-.023.01-.037.018-.037.014-.023.01-.042.013-.024.005-.041.01-.024.004-.041.005-.024.004-.041.005h-.093l-.047-.005-.023-.004-.042-.005-.023-.005-.042-.009-.042-.014-.023-.01-.037-.013-.024-.01-.041-.018-.038-.019-.018-.009-.033-.023-.018-.014-.019-.014-.019-.014-.032-.023-.033-.028-.032-.028-.028-.028-.028-.032-.028-.033-.023-.033-.014-.023-.023-.037-.01-.019-.018-.037-.019-.037-.014-.037-.009-.023-.014-.042-.005-.023-.009-.042-.004-.024-.005-.023-.005-.023-.004-.023-.005-.042v-.795h-.999c-.498 0-1-.074-1.455-.279a2.24 2.24 0 01-.986-.822 2.285 2.285 0 01-.348-1.25c0-.447.102-.88.348-1.256.242-.372.581-.637.981-.823.456-.204.958-.283 1.455-.283h3.774c.498 0 1 .074 1.455.283.405.182.739.451.981.823.246.377.349.809.349 1.255 0 .446-.103.874-.349 1.25a2.212 2.212 0 01-.986.823c-.455.205-.957.28-1.454.28h-.972v-.006zm-10.319 0v.754a.89.89 0 01-.888.887.89.89 0 01-.887-.887V8.7a.89.89 0 01.887-.888h1.887c.498 0 1 .074 1.455.283.405.182.739.451.981.823.246.377.349.809.349 1.255 0 .446-.103.874-.349 1.25a2.215 2.215 0 01-.985.823c-.456.205-.958.28-1.455.28h-.995v-.006zm10.319-3.184v1.665h.92c.275 0 .6-.042.814-.224.186-.153.251-.367.251-.604 0-.242-.061-.46-.251-.613-.219-.182-.544-.224-.814-.224h-.92zm-1.78 1.665V9.335h-.92c-.275 0-.6.042-.814.224-.19.158-.251.376-.251.613s.065.451.251.604c.219.182.544.224.814.224h.92zm-8.539-1.665v1.665h.92c.275 0 .6-.042.814-.224.186-.153.251-.367.251-.604 0-.242-.061-.46-.251-.613-.219-.182-.544-.224-.814-.224h-.92zm-10.57.963a3.71 3.71 0 00.851-2.366 3.728 3.728 0 00-3.728-3.728h-5.722c-.786 0-1.422.627-1.436 1.413v10.696c0 .65.53 1.18 1.18 1.18h6.308a4.048 4.048 0 002.547-7.195zm-6.958 4.913v-3.389h3.946a1.698 1.698 0 010 3.393h-3.946v-.004zm.562-8.502h3.128a1.303 1.303 0 010 2.608h-3.695V6.71h.567zm-7.604 5.113h-8.813a3.893 3.893 0 003.737 2.836c1.292 0 2.51-.437 3.337-1.2a1.419 1.419 0 011.915 2.092c-1.348 1.237-3.263 1.943-5.257 1.943a6.723 6.723 0 01-6.716-6.717 6.723 6.723 0 016.716-6.716c3.38 0 6.22 2.663 6.582 6.014a1.527 1.527 0 01-1.501 1.748zm-1.316-2.51a4.012 4.012 0 00-3.704-2.468 4.012 4.012 0 00-3.705 2.468h7.409zm-1.585-6.047a1.548 1.548 0 110-3.095 1.548 1.548 0 010 3.095zm-4.783 0a1.548 1.548 0 110-3.095 1.548 1.548 0 010 3.095zm-106.862.711a6.872 6.872 0 016.87 6.87 6.872 6.872 0 01-6.87 6.87 6.872 6.872 0 01-6.87-6.87 6.866 6.866 0 016.87-6.87zm0 2.654a4.215 4.215 0 100 8.431 4.215 4.215 0 000-8.43zM3.058 4.651c.019.019.033.037.052.051l4.304 4.495 4.378-4.55a1.54 1.54 0 012.627 1.096v10.198c0 .847-.693 1.544-1.544 1.544-.85 0-1.543-.693-1.543-1.543v-6.8l-2.914 3.03-.033.032-.01.01a1.39 1.39 0 01-.868.386H7.31a1.355 1.355 0 01-.869-.386l-.009-.01-.033-.032-2.89-3.003v6.772c0 .847-.693 1.544-1.544 1.544a1.548 1.548 0 01-1.543-1.543v-10.2A1.545 1.545 0 013.057 4.65zm89.692-.446c.841 0 1.53.688 1.53 1.53V8.57h3.379c1.617 0 2.863.362 3.732 1.083.865.72 1.301 1.79 1.301 3.207 0 1.506-.478 2.654-1.431 3.444-.958.79-2.301 1.185-4.035 1.185h-4.471c-.842 0-1.53-.688-1.53-1.529V5.73a1.522 1.522 0 011.525-1.524zm1.525 6.642v4.365h2.77c.795 0 1.422-.195 1.868-.59.451-.391.675-.963.675-1.707 0-1.38-.846-2.068-2.543-2.068h-2.77zm12.034-6.642c.841 0 1.529.688 1.529 1.53v10.23c0 .841-.688 1.529-1.529 1.529a1.533 1.533 0 01-1.529-1.53V5.735a1.536 1.536 0 011.529-1.53zm-22.763 0h4.519c.688 0 1.255.562 1.255 1.255 0 .688-.563 1.25-1.255 1.25h-2.998v9.264c0 .837-.684 1.52-1.52 1.52-.837 0-1.52-.683-1.52-1.52V6.71h-2.98c-.688 0-1.25-.562-1.25-1.25s.562-1.255 1.25-1.255h4.5zm-48.968 0c.846 0 1.538.692 1.538 1.538v3.7h6.038v-3.7c0-.846.693-1.538 1.539-1.538s1.538.692 1.538 1.538v10.213c0 .845-.692 1.538-1.538 1.538a1.543 1.543 0 01-1.539-1.538v-3.91h-6.038v3.91c0 .845-.692 1.538-1.538 1.538a1.543 1.543 0 01-1.539-1.538V5.743c0-.85.693-1.538 1.539-1.538z" fill="#00893D"/></svg>