<svg width="25" height="24" fill="none" xmlns="http://www.w3.org/2000/svg"><path fill-rule="evenodd" clip-rule="evenodd" d="M14.84 23.51a11.822 11.822 0 01-9.835-2.715 18.633 18.633 0 009.487.771c.19-.032.376-.074.562-.116a9.873 9.873 0 007.544-10.477 18.621 18.621 0 01-1.222 9.018 11.815 11.815 0 01-6.536 3.518z" fill="url(#paint0_linear)"/><path fill-rule="evenodd" clip-rule="evenodd" d="M14.733 15.073c-.05-.084-.107-.163-.158-.246.005 0 .005-.005.01-.005.07.116.12.205.148.25z" fill="#FFF8B4"/><path fill-rule="evenodd" clip-rule="evenodd" d="M12.501 5.632a27.656 27.656 0 006.647 11.235H16.49a29.645 29.645 0 01-6.033-11.235h2.045z" fill="#FFD800"/><path fill-rule="evenodd" clip-rule="evenodd" d="M15.082 5.632a29.643 29.643 0 01-6.015 11.235H6.413a27.682 27.682 0 006.62-11.235h2.049z" fill="#E5310E"/><path fill-rule="evenodd" clip-rule="evenodd" d="M19.372 14.399a14.094 14.094 0 01-6.605 1.636c-2.384 0-4.634-.59-6.605-1.636V12.14a12.345 12.345 0 006.605 1.901c2.427 0 4.69-.697 6.605-1.901v2.259z" fill="#5CB136"/><path fill-rule="evenodd" clip-rule="evenodd" d="M4.275 3.587c.032-.032.065-.07.097-.102-.032.037-.065.07-.097.102zm.73 17.208a11.786 11.786 0 01-3.9-6.875A11.82 11.82 0 014.168 3.703l-.01.01a18.595 18.595 0 00-1.222 9.013c.028.283.06.567.112.85.938 5.285 5.917 8.832 11.192 8.032l.251-.041c-3.197.687-6.358.367-9.487-.772z" fill="url(#paint1_linear)"/><path fill-rule="evenodd" clip-rule="evenodd" d="M10.699.185a11.819 11.819 0 019.835 2.714 18.634 18.634 0 00-9.236-.813l-.25.042C5.966 3.029 2.484 7.673 2.94 12.72a18.595 18.595 0 011.222-9.013A11.761 11.761 0 0110.7.185z" fill="url(#paint2_linear)"/><path fill-rule="evenodd" clip-rule="evenodd" d="M21.259 20.107c-.033.032-.065.07-.098.102a2.1 2.1 0 01.098-.102zm-.73-17.208a11.785 11.785 0 013.9 6.875 11.82 11.82 0 01-3.063 10.217l.009-.01a18.595 18.595 0 001.222-9.013 8.877 8.877 0 00-.111-.85 9.868 9.868 0 00-11.193-8.032l-.251.042c3.203-.693 6.363-.368 9.487.771z" fill="url(#paint3_linear)"/><defs><linearGradient id="paint0_linear" x1="23.513" y1="16.439" x2="4.8" y2="19.567" gradientUnits="userSpaceOnUse"><stop stop-color="#FFE500"/><stop offset="1" stop-color="#F18500"/></linearGradient><linearGradient id="paint1_linear" x1="1.256" y1="5.026" x2="10.417" y2="23.577" gradientUnits="userSpaceOnUse"><stop stop-color="#FDC300"/><stop offset="1" stop-color="#D7030D"/></linearGradient><linearGradient id="paint2_linear" x1="1.977" y1="7.312" x2="20.722" y2="3.983" gradientUnits="userSpaceOnUse"><stop stop-color="#FFED00"/><stop offset="1" stop-color="#9FC515"/></linearGradient><linearGradient id="paint3_linear" x1="16.88" y1="1.088" x2="20.274" y2="20.363" gradientUnits="userSpaceOnUse"><stop stop-color="#32A934"/><stop offset="1" stop-color="#C7D300"/></linearGradient></defs></svg>