<svg width="30" height="30" fill="none" xmlns="http://www.w3.org/2000/svg"><path fill="#D8D8D8" fill-opacity=".01" d="M0 0h29.975v30H0z"/><path d="M25.892 20.88c-1.822-1.55-3.67-2.489-5.47-.94l-1.074.935c-.786.679-2.247 3.851-7.898-2.616-5.649-6.459-2.287-7.465-1.5-8.138l1.08-.936c1.79-1.552 1.115-3.504-.176-5.515l-.78-1.217C8.779.447 7.367-.87 5.573.679l-.97.843c-.793.575-3.01 2.443-3.548 5.993-.647 4.26 1.395 9.137 6.072 14.488 4.671 5.354 9.245 8.043 13.578 7.996 3.6-.038 5.775-1.96 6.455-2.66l.973-.844c1.79-1.547.678-3.123-1.145-4.677l-1.095-.938z" fill="#00893D"/></svg>