<svg width="23" height="25" fill="none" xmlns="http://www.w3.org/2000/svg"><path fill-rule="evenodd" clip-rule="evenodd" d="M5.108 6.5c0 3.406 2.859 6.167 6.385 6.167 3.527 0 6.386-2.761 6.386-6.167 0-3.406-2.859-6.167-6.386-6.167-3.526 0-6.385 2.761-6.385 6.167zm17.88 14.8v2.467c0 .68-.573 1.233-1.278 1.233-.705 0-1.277-.552-1.277-1.233V21.3c0-2.043-1.715-3.7-3.831-3.7H6.385c-2.116 0-3.83 1.657-3.83 3.7v2.467c0 .68-.573 1.233-1.278 1.233C.572 25 0 24.448 0 23.767V21.3c0-3.406 2.859-6.167 6.385-6.167h10.217c3.526 0 6.385 2.761 6.385 6.167z" fill="url(#paint0_linear)"/><defs><linearGradient id="paint0_linear" x1="1.983" y1="-1.605" x2="19.426" y2="27.995" gradientUnits="userSpaceOnUse"><stop stop-color="#79DBF1"/><stop offset="1" stop-color="#0056FC"/></linearGradient></defs></svg>