<svg width="26" height="26" fill="none" xmlns="http://www.w3.org/2000/svg"><path fill="#D8D8D8" fill-opacity=".01" d="M.274 0h24.81v25.044H.274z"/><path fill-rule="evenodd" clip-rule="evenodd" d="M5.325 16.529a7.973 7.973 0 0011.324 0c3.115-3.145 3.115-8.248.004-11.426-3.12-3.15-8.211-3.15-11.328-.004-3.116 3.145-3.116 8.284 0 11.43zm9.957-10.05c2.362 2.412 2.362 6.286 0 8.67a6.053 6.053 0 01-8.589 0c-2.361-2.383-2.361-6.286 0-8.67a6.052 6.052 0 018.59 0z" fill="#4A4A4A"/><path d="M16.649 16.529l-.142-.141.142.14zm-11.324 0l.143-.141-.143.14zM16.653 5.103l.143-.14h-.001l-.142.14zM5.325 5.099l-.142-.14.142.14zm9.957 10.05l-.142-.14.142.14zm0-8.67l.143-.14-.143.14zm-8.589 8.67l-.142.141.142-.14zm0-8.67l-.142-.14.142.14zm9.814 9.909a7.773 7.773 0 01-11.04 0l-.284.281a8.173 8.173 0 0011.608 0l-.284-.281zm.003-11.145c3.036 3.1 3.034 8.078-.003 11.145l.284.281c3.193-3.223 3.192-8.45.005-11.706l-.286.28zM5.468 5.24c3.037-3.067 8-3.067 11.043.004l.284-.282c-3.199-3.228-8.417-3.229-11.612-.004l.285.282zm0 11.148c-3.04-3.068-3.04-8.08 0-11.148l-.285-.282c-3.193 3.224-3.193 8.488 0 11.711l.285-.281zm9.956-1.098c2.44-2.463 2.439-6.461.001-8.95l-.286.28c2.287 2.334 2.286 6.083.001 8.389l.284.281zm-8.873 0a6.252 6.252 0 008.873 0l-.284-.281a5.852 5.852 0 01-8.305 0l-.284.281zm0-8.952c-2.438 2.462-2.438 6.49 0 8.952l.284-.281c-2.284-2.306-2.284-6.083 0-8.389l-.284-.282zm8.873 0a6.252 6.252 0 00-8.873 0l.284.282a5.852 5.852 0 018.305 0l.284-.282z" fill="#4A4A4A"/><path d="M15.378 16.627l5.51 5.562a.96.96 0 001.366 0 .982.982 0 000-1.38l-5.51-5.562a.96.96 0 00-1.366 0 .982.982 0 000 1.38z" fill="#4A4A4A" stroke="#4A4A4A" stroke-width=".4"/></svg>