<svg width="28" height="24" fill="none" xmlns="http://www.w3.org/2000/svg"><path d="M11.428 19.429a2.288 2.288 0 00-2.285 2.285A2.288 2.288 0 0011.428 24a2.288 2.288 0 002.286-2.286 2.288 2.288 0 00-2.286-2.285zm9.144 0a2.288 2.288 0 00-2.286 2.285A2.288 2.288 0 0020.572 24a2.289 2.289 0 002.286-2.286 2.288 2.288 0 00-2.286-2.285zm-7.968-6.606a.978.978 0 001.08.863.972.972 0 00.878-1.062l-.454-4.318a.98.98 0 00-1.08-.863.972.972 0 00-.878 1.062l.454 4.318zm6.16.864a.978.978 0 001.08-.863l.454-4.318a.972.972 0 00-.878-1.062.98.98 0 00-1.08.863l-.454 4.318a.972.972 0 00.878 1.062z" fill="#8F8F8F"/><mask id="path-5-inside-1" fill="#fff"><path fill-rule="evenodd" clip-rule="evenodd" d="M26.414 3.84a.99.99 0 01.779.375c.186.237.25.546.174.835l-3.046 11.517a.982.982 0 01-.953.724H9.08a.982.982 0 01-.953-.724L5.09 5.08a.945.945 0 01-.015-.058l-.817-3.087H.984A.976.976 0 010 .968C0 .433.44 0 .984 0H5.02a.98.98 0 01.952.724l.824 3.115h19.62zM9.841 15.354h12.766l2.534-9.58H7.307l2.534 9.58z"/></mask><path fill-rule="evenodd" clip-rule="evenodd" d="M26.414 3.84a.99.99 0 01.779.375c.186.237.25.546.174.835l-3.046 11.517a.982.982 0 01-.953.724H9.08a.982.982 0 01-.953-.724L5.09 5.08a.945.945 0 01-.015-.058l-.817-3.087H.984A.976.976 0 010 .968C0 .433.44 0 .984 0H5.02a.98.98 0 01.952.724l.824 3.115h19.62zM9.841 15.354h12.766l2.534-9.58H7.307l2.534 9.58z" fill="#8F8F8F"/><path d="M27.193 4.215l.393-.31-.393.31zm.174.835l.483.128-.483-.128zm-3.046 11.517l.483.127-.483-.127zm-16.194 0l-.483.127.483-.127zM5.09 5.08l.483-.128-.001-.008-.003-.007-.479.143zm-.015-.058l.487-.112-.002-.008-.002-.008-.483.128zm-.817-3.087l.484-.127-.099-.373h-.385v.5zM5.971.725l.484-.129-.484.128zm.824 3.114l-.483.128.098.372h.385v-.5zm15.812 11.516v.5h.385l.098-.372-.483-.128zm-12.766 0l-.484.128.099.372h.385v-.5zm15.3-9.58l.484.127.166-.628h-.65v.5zm-17.834 0v-.5h-.65l.166.627.484-.128zm20.28-1.87a1.49 1.49 0 00-1.173-.566v1a.49.49 0 01.386.185l.786-.618zm.264 1.273a1.456 1.456 0 00-.265-1.272l-.786.618c.09.114.12.261.084.399l.966.255zm-3.047 11.516L27.85 5.178l-.966-.256-3.047 11.517.967.255zm-1.436 1.097c.67 0 1.264-.446 1.436-1.097l-.966-.255a.482.482 0 01-.47.352v1zm-14.288 0h14.288v-1H9.08v1zm-1.436-1.097a1.482 1.482 0 001.436 1.097v-1a.482.482 0 01-.47-.352l-.966.255zM4.606 5.208l3.038 11.486.967-.255L5.572 4.952l-.966.256zm-.02-.073c.008.03.015.06.024.087l.958-.285a.46.46 0 01-.007-.027l-.974.225zm-.812-3.072l.817 3.087.966-.256-.816-3.086-.967.255zm-2.79.372h3.273v-1H.984v1zM-.5.968c0 .818.673 1.467 1.484 1.467v-1A.476.476 0 01.5.968h-1zM.984-.5C.173-.5-.5.15-.5.968h1C.5.718.709.5.984.5v-1zm4.035 0H.984v1H5.02v-1zM6.455.596A1.482 1.482 0 005.019-.5v1c.226 0 .415.15.469.352l.967-.256zm.823 3.115L6.455.596l-.967.256.824 3.115.966-.256zm19.136-.372H6.794v1h19.62v-1zm-3.807 11.516H9.841v1h12.766v-1zm2.05-9.208l-2.533 9.58.966.256 2.535-9.58-.967-.256zm-17.35.627H25.14v-1H7.307v1zm3.017 8.953L7.79 5.647l-.967.255 2.534 9.58.967-.255z" fill="#8F8F8F" mask="url(#path-5-inside-1)"/></svg>