<svg width="21" height="13" fill="none" xmlns="http://www.w3.org/2000/svg"><path fill-rule="evenodd" clip-rule="evenodd" d="M.746 5.205c-.32.43-.54.769-.658.972a.637.637 0 000 .646c.117.203.337.542.658.972.53.711 1.156 1.422 1.877 2.088C4.72 11.82 7.188 13 10.006 13c2.818 0 5.285-1.179 7.383-3.117a15.311 15.311 0 001.877-2.088c.32-.43.54-.769.658-.972a.636.636 0 000-.646 10.725 10.725 0 00-.658-.972 15.311 15.311 0 00-1.877-2.088C15.291 1.18 12.824 0 10.006 0 7.188 0 4.721 1.179 2.623 3.117A15.307 15.307 0 00.746 5.205zm3.094 3.69A13.828 13.828 0 011.785 6.5 13.827 13.827 0 013.84 4.105c1.811-1.673 3.878-2.66 6.167-2.66 2.29 0 4.356.987 6.167 2.66A13.83 13.83 0 0118.227 6.5a13.83 13.83 0 01-2.054 2.395c-1.811 1.673-3.878 2.66-6.167 2.66-2.289 0-4.356-.987-6.166-2.66z" fill="#8F8F8F"/><path d="M10.005 9.389C8.163 9.389 6.67 8.095 6.67 6.5c0-1.596 1.493-2.889 3.335-2.889 1.842 0 3.336 1.293 3.336 2.889 0 1.595-1.494 2.889-3.336 2.889z" fill="#8F8F8F"/></svg>