<svg width="21" height="13" fill="none" xmlns="http://www.w3.org/2000/svg"><path fill-rule="evenodd" clip-rule="evenodd" d="M1.046 5.205c-.327.43-.55.769-.67.972a.627.627 0 000 .646c.12.203.343.542.67.972.54.711 1.178 1.422 1.912 2.088C5.094 11.82 7.608 13 10.478 13c2.87 0 5.384-1.179 7.52-3.117a15.4 15.4 0 001.912-2.088c.327-.43.551-.769.67-.972a.626.626 0 000-.646 10.547 10.547 0 00-.67-.972 15.4 15.4 0 00-1.912-2.088C15.863 1.18 13.348 0 10.479 0c-2.87 0-5.384 1.179-7.52 3.117a15.407 15.407 0 00-1.912 2.088zm3.15 3.69A13.918 13.918 0 012.104 6.5a13.917 13.917 0 012.093-2.395c1.844-1.673 3.949-2.66 6.28-2.66 2.332 0 4.437.987 6.282 2.66A13.914 13.914 0 0118.85 6.5a13.914 13.914 0 01-2.093 2.395c-1.844 1.673-3.949 2.66-6.28 2.66-2.332 0-4.437-.987-6.282-2.66z" fill="#8F8F8F"/><path d="M10.477 9.389C8.601 9.389 7.08 8.095 7.08 6.5c0-1.596 1.521-2.889 3.397-2.889 1.877 0 3.398 1.293 3.398 2.889 0 1.595-1.521 2.889-3.398 2.889z" fill="#00893D"/></svg>