<svg width="177" height="22" viewBox="0 0 177 22" fill="none" xmlns="http://www.w3.org/2000/svg">
<path fill-rule="evenodd" clip-rule="evenodd" d="M75.5563 13.0875C75.1519 13.0875 74.7708 13.2688 74.5151 13.5802C73.6273 14.5935 72.5303 15.0956 71.2242 15.0956C70.4015 15.0956 69.667 14.9143 69.0209 14.5564C68.3748 14.1938 67.8728 13.6918 67.5103 13.0457C67.1477 12.3996 66.9711 11.6652 66.9711 10.8425C66.9711 10.0197 67.1524 9.28531 67.5103 8.63921C67.8728 7.99311 68.3748 7.49111 69.0209 7.12855C69.667 6.76599 70.4015 6.58936 71.2242 6.58936C72.2886 6.58936 73.2183 6.92403 74.0084 7.59337C74.3245 7.86761 74.5523 8.02565 74.9985 8.02565C75.7469 8.02565 76.3511 7.42138 76.3511 6.67302C76.3511 6.27792 76.1838 5.92466 75.9142 5.67366L75.9096 5.66901L75.891 5.65041C75.389 5.20418 74.8126 4.84163 74.1944 4.57668C73.2647 4.17229 72.2235 3.96777 71.0708 3.96777C69.7042 3.96777 68.4724 4.2606 67.3801 4.85092C66.2878 5.44124 65.4232 6.25468 64.8004 7.30053C64.1729 8.34637 63.8614 9.52701 63.8614 10.8425C63.8614 12.1579 64.1729 13.3385 64.8004 14.3844C65.4279 15.4302 66.2878 16.2437 67.3801 16.834C68.4724 17.4243 69.6996 17.7171 71.0522 17.7171C72.205 17.7171 73.2461 17.5126 74.1851 17.1082C75.1008 16.7131 75.8724 16.1414 76.4999 15.393C76.7462 15.1513 76.9043 14.8074 76.9043 14.4355C76.9043 13.6918 76.3 13.0875 75.5563 13.0875ZM59.7338 3.97707C60.4683 3.97707 61.0632 4.57668 61.0632 5.30645V10.8471V16.3877C61.0632 17.1175 60.4636 17.7171 59.7338 17.7171C59.0041 17.7171 58.4045 17.1175 58.4045 16.3877V16.2762C57.2424 17.1779 55.7829 17.7171 54.1932 17.7171C50.4003 17.7171 47.3232 14.64 47.3232 10.8471C47.3232 7.05418 50.4003 3.97707 54.1932 3.97707C55.7782 3.97707 57.2424 4.51625 58.4045 5.418V5.30645C58.4045 4.57668 59.0041 3.97707 59.7338 3.97707ZM58.4045 11.1028V10.5961C58.2743 8.38356 56.4383 6.63119 54.1932 6.63119C51.8644 6.63119 49.9773 8.51836 49.9773 10.8471C49.9773 13.1759 51.8644 15.063 54.1932 15.063C56.4383 15.0677 58.2743 13.3153 58.4045 11.1028ZM111.961 4.20483C112.658 4.20483 113.23 4.74866 113.281 5.43194C114.448 4.52555 115.912 3.98171 117.502 3.98171C121.295 3.98171 124.372 7.05882 124.372 10.8517C124.372 14.6447 121.295 17.7218 117.502 17.7218C115.912 17.7218 114.448 17.1826 113.286 16.2762V20.4968C113.286 21.2265 112.691 21.8215 111.961 21.8215C111.231 21.8215 110.636 21.2265 110.636 20.4968V11.112C110.632 11.0284 110.632 10.9401 110.632 10.8517C110.632 10.7634 110.632 10.6798 110.636 10.5914V5.52491C110.636 4.7998 111.231 4.20483 111.961 4.20483ZM117.502 6.63119C115.173 6.63119 113.286 8.51836 113.286 10.8471C113.286 13.1759 115.173 15.063 117.502 15.063C119.83 15.063 121.718 13.1759 121.718 10.8471C121.718 8.52301 119.83 6.63119 117.502 6.63119ZM157.253 9.31319C157.946 9.31319 158.508 9.87563 158.508 10.5682C158.508 11.2608 157.946 11.8232 157.253 11.8232C156.56 11.8232 155.998 11.2608 155.998 10.5682C156.003 9.87563 156.56 9.31319 157.253 9.31319ZM173.159 12.5204V13.2967V13.3199L173.154 13.3664L173.15 13.3897L173.145 13.4129L173.136 13.4594L173.127 13.5012L173.122 13.5245L173.108 13.5663L173.099 13.5849L173.089 13.6081L173.075 13.6453L173.066 13.6686L173.048 13.7057L173.038 13.7243L173.015 13.7615L172.992 13.7941L172.978 13.8126L172.95 13.8452L172.922 13.8777L172.894 13.9103L172.862 13.9382L172.829 13.966L172.797 13.9939L172.759 14.0172L172.722 14.0404L172.704 14.0497L172.666 14.0683L172.643 14.0776L172.606 14.0962L172.569 14.1101L172.546 14.1194L172.504 14.1334L172.48 14.138L172.439 14.1473L172.415 14.152L172.374 14.1566L172.35 14.1613L172.309 14.1659H172.285H172.239H172.216L172.169 14.1613L172.146 14.1566L172.104 14.152L172.081 14.1473L172.039 14.138L171.997 14.1241L171.974 14.1148L171.937 14.1008L171.913 14.0915L171.872 14.073L171.834 14.0544L171.816 14.0451L171.783 14.0218L171.765 14.0079L171.746 13.9939L171.727 13.98L171.695 13.9568L171.662 13.9288L171.63 13.901L171.602 13.8731L171.574 13.8405L171.546 13.808L171.523 13.7755L171.509 13.7522L171.486 13.715L171.476 13.6964L171.458 13.6593L171.439 13.6221L171.425 13.5849L171.416 13.5617L171.402 13.5198L171.397 13.4966L171.388 13.4547L171.384 13.4315L171.379 13.4083L171.374 13.385L171.37 13.3618L171.365 13.3199V13.2967V13.2409V12.5251H170.366C169.868 12.5251 169.366 12.4507 168.911 12.2462C168.506 12.0649 168.167 11.7953 167.925 11.4235C167.684 11.047 167.577 10.6193 167.577 10.1731C167.577 9.72688 167.679 9.2946 167.925 8.91809C168.167 8.54624 168.506 8.28129 168.906 8.09537C169.362 7.89085 169.864 7.81183 170.361 7.81183H174.135C174.633 7.81183 175.135 7.8862 175.59 8.09537C175.995 8.27665 176.329 8.54624 176.571 8.91809C176.817 9.2946 176.92 9.72688 176.92 10.1731C176.92 10.6193 176.817 11.047 176.571 11.4235C176.329 11.7953 175.995 12.0649 175.585 12.2462C175.13 12.4507 174.628 12.5251 174.131 12.5251H173.159V12.5204ZM162.84 12.5204V13.2735C162.84 13.7615 162.44 14.1613 161.952 14.1613C161.464 14.1613 161.065 13.7615 161.065 13.2735V8.69963C161.065 8.21157 161.464 7.81183 161.952 7.81183H163.839C164.337 7.81183 164.839 7.8862 165.294 8.09537C165.699 8.27665 166.033 8.54624 166.275 8.91809C166.521 9.2946 166.624 9.72688 166.624 10.1731C166.624 10.6193 166.521 11.047 166.275 11.4235C166.033 11.7953 165.699 12.0649 165.29 12.2462C164.834 12.4507 164.332 12.5251 163.835 12.5251H162.84V12.5204ZM173.159 9.33644V11.0005H174.079C174.354 11.0005 174.679 10.9587 174.893 10.7774C175.079 10.624 175.144 10.4102 175.144 10.1731C175.144 9.93141 175.083 9.71294 174.893 9.55955C174.674 9.37827 174.349 9.33644 174.079 9.33644H173.159ZM171.379 11.0005V9.33644H170.459C170.184 9.33644 169.859 9.37827 169.645 9.55955C169.455 9.71758 169.394 9.93605 169.394 10.1731C169.394 10.4102 169.459 10.624 169.645 10.7774C169.864 10.9587 170.189 11.0005 170.459 11.0005H171.379ZM162.84 9.33644V11.0005H163.76C164.035 11.0005 164.36 10.9587 164.574 10.7774C164.76 10.624 164.825 10.4102 164.825 10.1731C164.825 9.93141 164.764 9.71294 164.574 9.55955C164.355 9.37827 164.03 9.33644 163.76 9.33644H162.84ZM152.27 10.2986C152.8 9.65716 153.121 8.82978 153.121 7.93268C153.121 5.87353 151.452 4.20483 149.393 4.20483H149.388H143.671C142.885 4.20483 142.249 4.83234 142.235 5.61788V5.64112V6.09199V16.0484V16.2344V16.2715V16.3041V16.3134C142.235 16.9641 142.765 17.494 143.415 17.494H143.425H143.638H149.723C151.959 17.494 153.771 15.6812 153.771 13.4454C153.767 12.1718 153.186 11.0377 152.27 10.2986ZM145.312 15.2118V11.8232H146.009H149.258C150.192 11.8232 150.955 12.5809 150.955 13.5198C150.955 14.4541 150.197 15.2164 149.258 15.2164H146.079H145.312V15.2118ZM145.874 6.7102H149.002C149.723 6.7102 150.304 7.29588 150.304 8.01636C150.304 8.73683 149.718 9.31784 149.002 9.31784H145.935H145.307V6.7102H145.874ZM138.27 11.8232H137.41H137.15H129.457C129.917 13.4547 131.418 14.6586 133.194 14.6586C134.486 14.6586 135.704 14.2217 136.531 13.4594C137.108 12.9295 138.005 12.9713 138.535 13.5477C139.065 14.1241 139.023 15.0212 138.446 15.5511C137.098 16.7875 135.183 17.494 133.189 17.494C129.485 17.494 126.473 14.482 126.473 10.7774C126.473 7.07276 129.485 4.06074 133.189 4.06074C136.569 4.06074 139.409 6.72415 139.771 10.0755C139.78 10.1452 139.785 10.2196 139.785 10.294C139.79 11.1353 139.106 11.8139 138.27 11.8232ZM136.954 9.31319C136.35 7.86295 134.918 6.845 133.25 6.845C131.581 6.845 130.149 7.86295 129.545 9.31319H136.954ZM135.369 3.2659C134.514 3.2659 133.821 2.57331 133.821 1.71804C133.821 0.862772 134.514 0.170197 135.369 0.170197C136.225 0.170197 136.917 0.862772 136.917 1.71804C136.917 2.57331 136.225 3.2659 135.369 3.2659ZM130.586 3.2659C129.731 3.2659 129.038 2.57331 129.038 1.71804C129.038 0.862772 129.731 0.170197 130.586 0.170197C131.442 0.170197 132.134 0.862772 132.134 1.71804C132.134 2.57331 131.442 3.2659 130.586 3.2659ZM23.7243 3.97707C27.5172 3.97707 30.5943 7.05418 30.5943 10.8471C30.5943 14.64 27.5172 17.7171 23.7243 17.7171C19.9313 17.7171 16.8542 14.64 16.8542 10.8471C16.8496 7.05418 19.9267 3.97707 23.7243 3.97707ZM23.7243 6.63119C21.3955 6.63119 19.5083 8.51836 19.5083 10.8471C19.5083 13.1759 21.3955 15.063 23.7243 15.063C26.053 15.063 27.9402 13.1759 27.9402 10.8471C27.9402 8.52301 26.053 6.63119 23.7243 6.63119ZM3.05838 4.65105C3.07697 4.66964 3.09092 4.68824 3.10951 4.70219L7.41374 9.19699L11.7923 4.64641C12.0712 4.37217 12.4524 4.20018 12.8754 4.20018C13.726 4.20018 14.4186 4.89276 14.4186 5.74338V15.9415C14.4186 16.7875 13.726 17.4847 12.8754 17.4847C12.0247 17.4847 11.3322 16.7921 11.3322 15.9415V9.14121L8.41775 12.1718C8.40845 12.1811 8.39916 12.1904 8.38521 12.2044C8.38056 12.209 8.38056 12.209 8.37592 12.2137C8.12956 12.4507 7.82278 12.5762 7.5067 12.5995H7.50205C7.49276 12.5995 7.48346 12.5995 7.47416 12.5995H7.46487C7.45557 12.5995 7.45092 12.5995 7.44163 12.5995C7.43698 12.5995 7.43233 12.5995 7.42768 12.5995C7.42304 12.5995 7.41374 12.5995 7.40909 12.5995C7.40444 12.5995 7.39514 12.5995 7.3905 12.5995C7.38585 12.5995 7.3812 12.5995 7.37655 12.5995C7.36726 12.5995 7.36261 12.5995 7.35331 12.5995H7.34402C7.33472 12.5995 7.32542 12.5995 7.31612 12.5995H7.31148C6.9954 12.5809 6.68397 12.4507 6.44226 12.2137C6.43762 12.209 6.43762 12.209 6.43297 12.2044C6.42367 12.1951 6.41438 12.1858 6.40043 12.1718L3.50925 9.1691V15.9415C3.50925 16.7875 2.81667 17.4847 1.96605 17.4847C1.12008 17.4847 0.422852 16.7921 0.422852 15.9415V5.74338C0.422852 4.89276 1.11543 4.20018 1.96605 4.20018C2.39833 4.20482 2.77949 4.37216 3.05838 4.65105ZM92.75 4.20483C93.5913 4.20483 94.2792 4.89277 94.2792 5.73409V5.98044V8.56948H97.6585C99.276 8.56948 100.522 8.93204 101.391 9.65252C102.256 10.373 102.692 11.4421 102.692 12.8598C102.692 14.3658 102.214 15.5139 101.261 16.3041C100.303 17.0943 98.96 17.4894 97.2262 17.4894H92.7546C91.9133 17.4894 91.2254 16.8014 91.2254 15.9601V15.407V5.97579V5.72944C91.2207 4.88811 91.9087 4.20483 92.75 4.20483ZM94.2746 10.8471V15.2118H97.0449C97.8398 15.2118 98.4673 15.0165 98.9135 14.6214C99.3643 14.231 99.5875 13.6593 99.5875 12.9155C99.5875 11.535 98.7415 10.8471 97.0449 10.8471H94.2746ZM106.309 4.20483C107.15 4.20483 107.838 4.89277 107.838 5.73409V15.9648C107.838 16.8061 107.15 17.494 106.309 17.494C105.467 17.494 104.78 16.8061 104.78 15.9648V5.73409C104.784 4.88812 105.472 4.20483 106.309 4.20483ZM83.5465 4.20483H88.0646C88.7525 4.20483 89.3196 4.76727 89.3196 5.45985C89.3196 6.14778 88.7572 6.7102 88.0646 6.7102H85.0665V15.9741C85.0665 16.8107 84.3832 17.494 83.5465 17.494C82.7099 17.494 82.0266 16.8107 82.0266 15.9741V6.7102H79.0471C78.3592 6.7102 77.7967 6.14778 77.7967 5.45985C77.7967 4.77191 78.3592 4.20483 79.0471 4.20483H83.5465ZM34.5778 4.20483C35.4238 4.20483 36.1164 4.89741 36.1164 5.74338V9.44334H42.1544V5.74338C42.1544 4.89741 42.8469 4.20483 43.6929 4.20483C44.5389 4.20483 45.2315 4.89741 45.2315 5.74338V15.9555C45.2315 16.8014 44.5389 17.494 43.6929 17.494C42.8469 17.494 42.1544 16.8014 42.1544 15.9555V12.0463H36.1164V15.9555C36.1164 16.8014 35.4238 17.494 34.5778 17.494C33.7318 17.494 33.0392 16.8014 33.0392 15.9555V5.74338C33.0392 4.89276 33.7318 4.20483 34.5778 4.20483Z" fill="#00893D"/>
</svg>
