<svg width="25" height="24" viewBox="0 0 25 24" fill="none" xmlns="http://www.w3.org/2000/svg">
<path fill-rule="evenodd" clip-rule="evenodd" d="M14.8405 23.5095C11.1777 24.1602 7.61252 23.0539 5.00488 20.7949C7.87747 21.8082 11.0336 22.1336 14.2408 21.6083C14.3245 21.5944 14.4082 21.5805 14.4919 21.5665C14.6824 21.534 14.8684 21.4921 15.0543 21.4503C19.828 20.3161 23.0352 15.8353 22.5983 10.9733C22.9516 14.1247 22.4914 17.2065 21.3758 19.9908C19.6885 21.771 17.4388 23.0493 14.8405 23.5095Z" fill="url(#paint0_linear)"/>
<path fill-rule="evenodd" clip-rule="evenodd" d="M14.7332 15.0729C14.6821 14.9893 14.6263 14.9103 14.5752 14.8266C14.5798 14.8266 14.5798 14.8219 14.5845 14.8219C14.6542 14.9381 14.7053 15.0265 14.7332 15.0729Z" fill="#FFF8B4"/>
<path fill-rule="evenodd" clip-rule="evenodd" d="M12.5013 5.63248C13.8028 9.90882 16.1083 13.7436 19.1482 16.8672H16.4894C13.7284 13.646 11.6413 9.8298 10.4561 5.63248H12.5013Z" fill="#FFD800"/>
<path fill-rule="evenodd" clip-rule="evenodd" d="M15.082 5.63248C13.9013 9.82515 11.8236 13.646 9.06721 16.8672H6.41309C9.43906 13.7436 11.7399 9.90417 13.0321 5.63248H15.082Z" fill="#E5310E"/>
<path fill-rule="evenodd" clip-rule="evenodd" d="M19.3723 14.399C17.4015 15.4402 15.1564 16.0351 12.7672 16.0351C10.3827 16.0351 8.13294 15.4448 6.16211 14.399V12.14C8.07252 13.3438 10.3362 14.0411 12.7672 14.0411C15.1936 14.0411 17.4572 13.3438 19.3723 12.14V14.399Z" fill="#5CB136"/>
<path fill-rule="evenodd" clip-rule="evenodd" d="M4.27468 3.58725C4.30722 3.55471 4.33976 3.51752 4.3723 3.48499C4.33976 3.52217 4.30722 3.55471 4.27468 3.58725ZM5.00445 20.7949C3.02432 19.0797 1.59732 16.6998 1.10461 13.9202C0.42133 10.0761 1.67634 6.33433 4.16778 3.70345L4.15848 3.71276C3.04291 6.49238 2.58274 9.57412 2.936 12.7256C2.96389 13.0091 2.99643 13.2927 3.04756 13.5762C3.9865 18.8612 8.96472 22.4078 14.2404 21.6083C14.3241 21.5944 14.4078 21.5804 14.4914 21.5665C11.2935 22.2544 8.13269 21.9337 5.00445 20.7949Z" fill="url(#paint1_linear)"/>
<path fill-rule="evenodd" clip-rule="evenodd" d="M10.6988 0.184797C14.3616 -0.465951 17.9267 0.640318 20.5344 2.89934C17.6618 1.88603 14.5057 1.56066 11.2984 2.08591C11.2147 2.09985 11.1311 2.1138 11.0474 2.12774C5.96693 3.02949 2.48543 7.67303 2.94095 12.721C2.58769 9.56949 3.04786 6.48774 4.16343 3.70812C5.84608 1.92322 8.0958 0.644968 10.6988 0.184797Z" fill="url(#paint2_linear)"/>
<path fill-rule="evenodd" clip-rule="evenodd" d="M21.2587 20.1069C21.2262 20.1394 21.1937 20.1766 21.1611 20.2092C21.1937 20.172 21.2262 20.1394 21.2587 20.1069ZM20.529 2.89928C22.5091 4.61446 23.9361 6.99433 24.4288 9.77395C25.1121 13.618 23.8571 17.3598 21.3656 19.9907L21.3749 19.9814C22.4905 17.2018 22.9507 14.12 22.5974 10.9685C22.5742 10.685 22.537 10.4015 22.4859 10.1179C21.5469 4.83293 16.5687 1.28636 11.293 2.08585C11.2093 2.09979 11.1257 2.11373 11.042 2.12768C14.2446 1.4351 17.4054 1.76047 20.529 2.89928Z" fill="url(#paint3_linear)"/>
<defs>
<linearGradient id="paint0_linear" x1="23.5133" y1="16.4394" x2="4.80018" y2="19.5674" gradientUnits="userSpaceOnUse">
<stop stop-color="#FFE500"/>
<stop offset="1" stop-color="#F18500"/>
</linearGradient>
<linearGradient id="paint1_linear" x1="1.25615" y1="5.02642" x2="10.4167" y2="23.5771" gradientUnits="userSpaceOnUse">
<stop stop-color="#FDC300"/>
<stop offset="1" stop-color="#D7030D"/>
</linearGradient>
<linearGradient id="paint2_linear" x1="1.97659" y1="7.31201" x2="20.7222" y2="3.98269" gradientUnits="userSpaceOnUse">
<stop stop-color="#FFED00"/>
<stop offset="1" stop-color="#9FC515"/>
</linearGradient>
<linearGradient id="paint3_linear" x1="16.8799" y1="1.0882" x2="20.2742" y2="20.3625" gradientUnits="userSpaceOnUse">
<stop stop-color="#32A934"/>
<stop offset="1" stop-color="#C7D300"/>
</linearGradient>
</defs>
</svg>
