<svg width="28" height="24" viewBox="0 0 28 24" fill="none" xmlns="http://www.w3.org/2000/svg">
<path d="M11.4282 19.4286C10.1679 19.4286 9.14258 20.4538 9.14258 21.714C9.14258 22.9745 10.1679 24 11.4282 24C12.6886 24 13.714 22.9745 13.714 21.714C13.714 20.4538 12.6887 19.4286 11.4282 19.4286Z" fill="#8F8F8F"/>
<path d="M20.5718 19.4286C19.3115 19.4286 18.2861 20.4538 18.2861 21.714C18.2861 22.9745 19.3115 24 20.5718 24C21.8321 24 22.8576 22.9745 22.8576 21.714C22.8576 20.4538 21.8322 19.4286 20.5718 19.4286Z" fill="#8F8F8F"/>
<path d="M12.6036 12.8233C12.656 13.3211 13.0833 13.6916 13.5815 13.6916C13.6154 13.6916 13.6495 13.6899 13.6839 13.6864C14.2246 13.6315 14.6176 13.156 14.5617 12.6242L14.1079 8.30578C14.052 7.77404 13.568 7.38785 13.0277 7.44269C12.487 7.49766 12.0939 7.97314 12.1498 8.50475L12.6036 12.8233Z" fill="#8F8F8F"/>
<path d="M18.764 13.6873C18.7984 13.6908 18.8325 13.6924 18.8664 13.6924C19.3644 13.6924 19.7919 13.3218 19.8442 12.8242L20.298 8.50572C20.3539 7.97398 19.9609 7.49849 19.4202 7.44366C18.8792 7.38959 18.3957 7.77514 18.34 8.30675L17.8862 12.6252C17.8302 13.1568 18.2233 13.6323 18.764 13.6873Z" fill="#8F8F8F"/>
<mask id="path-5-inside-1" fill="white">
<path fill-rule="evenodd" clip-rule="evenodd" d="M26.4144 3.8391C26.7191 3.8391 27.0066 3.97794 27.193 4.21497C27.3794 4.452 27.4435 4.76052 27.367 5.05032L24.3209 16.5665C24.208 16.9929 23.8164 17.2906 23.3682 17.2906H9.07991C8.63173 17.2906 8.24012 16.9929 8.12726 16.5665L5.08912 5.07974C5.08347 5.06077 5.07835 5.04155 5.07389 5.02219L4.25747 1.93548H0.984279C0.440694 1.93548 0 1.50219 0 0.967742C0 0.43329 0.440694 0 0.984279 0H5.01851C5.46669 0 5.8583 0.297677 5.97116 0.724129L6.79494 3.8391H26.4144ZM9.8408 15.355H22.607L25.1411 5.77438H7.30674L9.8408 15.355Z"/>
</mask>
<path fill-rule="evenodd" clip-rule="evenodd" d="M26.4144 3.8391C26.7191 3.8391 27.0066 3.97794 27.193 4.21497C27.3794 4.452 27.4435 4.76052 27.367 5.05032L24.3209 16.5665C24.208 16.9929 23.8164 17.2906 23.3682 17.2906H9.07991C8.63173 17.2906 8.24012 16.9929 8.12726 16.5665L5.08912 5.07974C5.08347 5.06077 5.07835 5.04155 5.07389 5.02219L4.25747 1.93548H0.984279C0.440694 1.93548 0 1.50219 0 0.967742C0 0.43329 0.440694 0 0.984279 0H5.01851C5.46669 0 5.8583 0.297677 5.97116 0.724129L6.79494 3.8391H26.4144ZM9.8408 15.355H22.607L25.1411 5.77438H7.30674L9.8408 15.355Z" fill="#8F8F8F"/>
<path d="M27.193 4.21497L27.5861 3.90594V3.90594L27.193 4.21497ZM27.367 5.05032L27.8504 5.17818L27.8505 5.17795L27.367 5.05032ZM24.3209 16.5665L24.8042 16.6944L24.8043 16.6943L24.3209 16.5665ZM8.12726 16.5665L7.64388 16.6943L7.6439 16.6944L8.12726 16.5665ZM5.08912 5.07974L5.57249 4.95189L5.57054 4.94449L5.56835 4.93716L5.08912 5.07974ZM5.07389 5.02219L5.56111 4.90988L5.55932 4.90208L5.55727 4.89434L5.07389 5.02219ZM4.25747 1.93548L4.74084 1.80763L4.64241 1.43548H4.25747V1.93548ZM5.97116 0.724129L6.45454 0.596295L6.45452 0.596204L5.97116 0.724129ZM6.79494 3.8391L6.31155 3.96693L6.40998 4.3391H6.79494V3.8391ZM22.607 15.355V15.855H22.992L23.0904 15.4829L22.607 15.355ZM9.8408 15.355L9.35742 15.4829L9.45586 15.855H9.8408V15.355ZM25.1411 5.77438L25.6245 5.90223L25.7905 5.27438H25.1411V5.77438ZM7.30674 5.77438V5.27438H6.6573L6.82337 5.90223L7.30674 5.77438ZM27.5861 3.90594C27.3038 3.54688 26.8706 3.3391 26.4144 3.3391V4.3391C26.5676 4.3391 26.7095 4.40899 26.7999 4.524L27.5861 3.90594ZM27.8505 5.17795C27.9672 4.73559 27.8688 4.26557 27.5861 3.90594L26.7999 4.524C26.8899 4.63843 26.9198 4.78544 26.8836 4.92269L27.8505 5.17795ZM24.8043 16.6943L27.8504 5.17818L26.8836 4.92246L23.8375 16.4386L24.8043 16.6943ZM23.3682 17.7906C24.0381 17.7906 24.632 17.3451 24.8042 16.6944L23.8375 16.4385C23.784 16.6407 23.5947 16.7906 23.3682 16.7906V17.7906ZM9.07991 17.7906H23.3682V16.7906H9.07991V17.7906ZM7.6439 16.6944C7.81611 17.3451 8.41 17.7906 9.07991 17.7906V16.7906C8.85347 16.7906 8.66413 16.6407 8.61061 16.4385L7.6439 16.6944ZM4.60574 5.20759L7.64388 16.6943L8.61063 16.4386L5.57249 4.95189L4.60574 5.20759ZM4.58667 5.13451C4.59364 5.16476 4.60148 5.1941 4.60988 5.22233L5.56835 4.93716C5.56547 4.92745 5.56306 4.91833 5.56111 4.90988L4.58667 5.13451ZM3.77409 2.06334L4.59051 5.15005L5.55727 4.89434L4.74084 1.80763L3.77409 2.06334ZM0.984279 2.43548H4.25747V1.43548H0.984279V2.43548ZM-0.5 0.967742C-0.5 1.78629 0.172573 2.43548 0.984279 2.43548V1.43548C0.708816 1.43548 0.5 1.2181 0.5 0.967742H-0.5ZM0.984279 -0.5C0.172573 -0.5 -0.5 0.149195 -0.5 0.967742H0.5C0.5 0.717386 0.708816 0.5 0.984279 0.5V-0.5ZM5.01851 -0.5H0.984279V0.5H5.01851V-0.5ZM6.45452 0.596204C6.28231 -0.0545005 5.68842 -0.5 5.01851 -0.5V0.5C5.24495 0.5 5.43429 0.649855 5.4878 0.852054L6.45452 0.596204ZM7.27832 3.71126L6.45454 0.596295L5.48778 0.851963L6.31155 3.96693L7.27832 3.71126ZM26.4144 3.3391H6.79494V4.3391H26.4144V3.3391ZM22.607 14.855H9.8408V15.855H22.607V14.855ZM24.6577 5.64653L22.1237 15.2272L23.0904 15.4829L25.6245 5.90223L24.6577 5.64653ZM7.30674 6.27438H25.1411V5.27438H7.30674V6.27438ZM10.3242 15.2272L7.79012 5.64653L6.82337 5.90223L9.35742 15.4829L10.3242 15.2272Z" fill="#8F8F8F" mask="url(#path-5-inside-1)"/>
</svg>
