<svg width="21" height="13" viewBox="0 0 21 13" fill="none" xmlns="http://www.w3.org/2000/svg">
<path fill-rule="evenodd" clip-rule="evenodd" d="M1.04572 5.2054C0.719264 5.63523 0.495188 5.97397 0.375799 6.17701C0.256244 6.38034 0.256244 6.61966 0.375799 6.82299C0.495188 7.02603 0.719264 7.36477 1.04572 7.7946C1.58604 8.50601 2.22357 9.21699 2.95767 9.88285C5.09446 11.821 7.60754 13 10.4781 13C13.3487 13 15.8618 11.821 17.9985 9.88285C18.7327 9.21699 19.3702 8.50601 19.9105 7.7946C20.237 7.36477 20.461 7.02603 20.5804 6.82299C20.7 6.61966 20.7 6.38034 20.5804 6.17701C20.461 5.97397 20.237 5.63523 19.9105 5.2054C19.3702 4.49399 18.7327 3.78301 17.9985 3.11715C15.8618 1.17902 13.3487 0 10.4781 0C7.60754 0 5.09446 1.17902 2.95767 3.11715C2.22357 3.78301 1.58604 4.49399 1.04572 5.2054ZM4.19619 8.89491C3.53687 8.29688 2.96012 7.65369 2.47195 7.01094C2.33339 6.8285 2.2105 6.65716 2.10359 6.49998C2.2105 6.34281 2.33339 6.17146 2.47195 5.98903C2.96012 5.34627 3.53687 4.70308 4.19619 4.10505C6.04065 2.43207 8.14581 1.44443 10.4774 1.44443C12.809 1.44443 14.9141 2.43207 16.7586 4.10505C17.4179 4.70308 17.9947 5.34627 18.4828 5.98903C18.6214 6.17146 18.7443 6.34281 18.8512 6.49998C18.7443 6.65716 18.6214 6.8285 18.4828 7.01094C17.9947 7.65369 17.4179 8.29688 16.7586 8.89491C14.9141 10.5679 12.809 11.5555 10.4774 11.5555C8.14581 11.5555 6.04065 10.5679 4.19619 8.89491Z" fill="#8F8F8F"/>
<path d="M10.4774 9.38886C8.60111 9.38886 7.08008 8.09546 7.08008 6.49997C7.08008 4.90448 8.60111 3.61108 10.4774 3.61108C12.3537 3.61108 13.8747 4.90448 13.8747 6.49997C13.8747 8.09546 12.3537 9.38886 10.4774 9.38886Z" fill="#00893D"/>
</svg>
